<?xml version="1.0" standalone="no"?>
<!DOCTYPE svg PUBLIC "-//W3C//DTD SVG 20010904//EN"
 "http://www.w3.org/TR/2001/REC-SVG-20010904/DTD/svg10.dtd">
<svg version="1.0" xmlns="http://www.w3.org/2000/svg"
 width="260.000000pt" height="260.000000pt" viewBox="0 0 260.000000 260.000000"
 preserveAspectRatio="xMidYMid meet">
<metadata>
Created by potrace 1.11, written by Peter Selinger 2001-2013
</metadata>
<g transform="translate(0.000000,260.000000) scale(0.100000,-0.100000)"
fill="#000000" stroke="none">
<path d="M0 1300 l0 -1300 1300 0 1300 0 0 1300 0 1300 -1300 0 -1300 0 0
-1300z m1021 921 c75 -30 144 -84 204 -159 l50 -63 29 38 c116 150 245 213
430 213 137 0 243 -38 327 -117 106 -99 154 -220 169 -423 5 -69 10 -405 10
-747 l0 -623 -275 0 -275 0 0 649 c0 383 -4 660 -9 674 -19 49 -90 47 -116 -3
-13 -25 -15 -117 -15 -675 l0 -645 -275 0 -275 0 0 649 c0 393 -4 660 -10 675
-10 28 -46 42 -79 31 -51 -16 -51 -16 -51 -710 l0 -645 -275 0 -275 0 0 679
c0 699 4 780 41 888 53 157 188 282 350 328 79 22 246 15 320 -14z"/>
</g>
</svg>
